{
    "asset": {
        "generator": "Khronos glTF Blender I/O v1.1.46",
        "version": "2.0"
    },
    "scene": 0,
    "scenes": [{
        "name": "Cycles",
        "nodes": [
            0,
            3
        ]
    }],
    "nodes": [{
            "mesh": 1,
            "name": "Cube.000",
            "translation": [-0.5972596406936646, -0.12053894996643066,
                0
            ]
        },
        {
            "mesh": 2,
            "name": "Cube.001"
        },
        {
            "mesh": 3,
            "name": "Gun_trigger.001",
            "translation": [-0.1308179646730423,
                0.24100036919116974,
                0
            ]
        },
        {
            "children": [
                1,
                2
            ],
            "mesh": 5,
            "name": "Gun.001"
        }
    ],
    "animations": [{
            "channels": [{
                "sampler": 0,
                "target": {
                    "node": 2,
                    "path": "translation"
                }
            }],
            "name": "Cube.005Action.002",
            "samplers": [{
                "input": 33,
                "interpolation": "LINEAR",
                "output": 34
            }]
        },
        {
            "channels": [{
                    "sampler": 0,
                    "target": {
                        "node": 2,
                        "path": "scale"
                    }
                },
                {
                    "sampler": 1,
                    "target": {
                        "node": 2,
                        "path": "translation"
                    }
                },
                {
                    "sampler": 2,
                    "target": {
                        "node": 2,
                        "path": "rotation"
                    }
                }
            ],
            "name": "Plane.001Action.002",
            "samplers": [{
                    "input": 33,
                    "interpolation": "LINEAR",
                    "output": 35
                },
                {
                    "input": 33,
                    "interpolation": "LINEAR",
                    "output": 36
                },
                {
                    "input": 37,
                    "interpolation": "LINEAR",
                    "output": 38
                }
            ]
        },
        {
            "channels": [{
                "sampler": 0,
                "target": {
                    "node": 3,
                    "path": "rotation"
                }
            }],
            "name": "Cube.006Action.002",
            "samplers": [{
                "input": 33,
                "interpolation": "LINEAR",
                "output": 39
            }]
        }
    ],
    "materials": [{
            "doubleSided": true,
            "name": "Material",
            "pbrMetallicRoughness": {}
        },
        {
            "doubleSided": true,
            "name": "handgun_cycles",
            "pbrMetallicRoughness": {}
        },
        {
            "doubleSided": true,
            "emissiveFactor": [
                1,
                1,
                1
            ],
            "emissiveTexture": {
                "index": 0,
                "texCoord": 0
            },
            "name": "Fire_cycles",
            "pbrMetallicRoughness": {}
        },
        {
            "doubleSided": true,
            "name": "Material.002",
            "pbrMetallicRoughness": {}
        }
    ],
    "meshes": [{
            "name": "Plane",
            "primitives": [{
                "attributes": {
                    "POSITION": 0,
                    "NORMAL": 1
                },
                "indices": 2,
                "material": 0
            }]
        },
        {
            "name": "Cube.011",
            "primitives": [{
                "attributes": {
                    "POSITION": 3,
                    "NORMAL": 4,
                    "TANGENT": 5,
                    "TEXCOORD_0": 6
                },
                "indices": 7,
                "material": 1
            }]
        },
        {
            "name": "Cube.013",
            "primitives": [{
                "attributes": {
                    "POSITION": 8,
                    "NORMAL": 9,
                    "TANGENT": 10,
                    "TEXCOORD_0": 11
                },
                "indices": 12,
                "material": 1
            }]
        },
        {
            "name": "Cube.014",
            "primitives": [{
                "attributes": {
                    "POSITION": 13,
                    "NORMAL": 14,
                    "TANGENT": 15,
                    "TEXCOORD_0": 16
                },
                "indices": 17,
                "material": 1
            }]
        },
        {
            "name": "Plane.004",
            "primitives": [{
                "attributes": {
                    "POSITION": 18,
                    "NORMAL": 19,
                    "TANGENT": 20,
                    "TEXCOORD_0": 21
                },
                "indices": 22,
                "material": 2
            }]
        },
        {
            "name": "Cube.012",
            "primitives": [{
                    "attributes": {
                        "POSITION": 23,
                        "NORMAL": 24,
                        "TANGENT": 25,
                        "TEXCOORD_0": 26
                    },
                    "indices": 27,
                    "material": 1
                },
                {
                    "attributes": {
                        "POSITION": 28,
                        "NORMAL": 29,
                        "TANGENT": 30,
                        "TEXCOORD_0": 31
                    },
                    "indices": 32,
                    "material": 3
                }
            ]
        }
    ],
    "textures": [{
        "source": 0
    }],
    "images": [{
        "mimeType": "image/png",
        "name": "handgun_Fire",
        "uri": "handgun_Fire.png"
    }],
    "accessors": [{
            "bufferView": 0,
            "componentType": 5126,
            "count": 4,
            "max": [
                0.8999999761581421,
                0,
                0.8999999761581421
            ],
            "min": [-0.8999999761581421,
                0, -0.8999999761581421
            ],
            "type": "VEC3"
        },
        {
            "bufferView": 1,
            "componentType": 5126,
            "count": 4,
            "type": "VEC3"
        },
        {
            "bufferView": 2,
            "componentType": 5123,
            "count": 6,
            "type": "SCALAR"
        },
        {
            "bufferView": 3,
            "componentType": 5126,
            "count": 44,
            "max": [
                0.28768035769462585,
                0.5153701305389404,
                0.07410739362239838
            ],
            "min": [-0.3257295489311218, -0.4640459418296814, -0.07410739362239838],
            "type": "VEC3"
        },
        {
            "bufferView": 4,
            "componentType": 5126,
            "count": 44,
            "type": "VEC3"
        },
        {
            "bufferView": 5,
            "componentType": 5126,
            "count": 44,
            "type": "VEC4"
        },
        {
            "bufferView": 6,
            "componentType": 5126,
            "count": 44,
            "type": "VEC2"
        },
        {
            "bufferView": 7,
            "componentType": 5123,
            "count": 108,
            "type": "SCALAR"
        },
        {
            "bufferView": 8,
            "componentType": 5126,
            "count": 636,
            "max": [
                0.8573475480079651,
                0.6452512741088867,
                0.101531021296978
            ],
            "min": [-0.7594957947731018,
                0.2715325951576233, -0.101531021296978
            ],
            "type": "VEC3"
        },
        {
            "bufferView": 9,
            "componentType": 5126,
            "count": 636,
            "type": "VEC3"
        },
        {
            "bufferView": 10,
            "componentType": 5126,
            "count": 636,
            "type": "VEC4"
        },
        {
            "bufferView": 11,
            "componentType": 5126,
            "count": 636,
            "type": "VEC2"
        },
        {
            "bufferView": 12,
            "componentType": 5123,
            "count": 1371,
            "type": "SCALAR"
        },
        {
            "bufferView": 13,
            "componentType": 5126,
            "count": 206,
            "max": [
                0.013585127890110016,
                0.0075545161962509155,
                0.014872955158352852
            ],
            "min": [-0.13160686194896698, -0.20116877555847168, -0.01616862416267395],
            "type": "VEC3"
        },
        {
            "bufferView": 14,
            "componentType": 5126,
            "count": 206,
            "type": "VEC3"
        },
        {
            "bufferView": 15,
            "componentType": 5126,
            "count": 206,
            "type": "VEC4"
        },
        {
            "bufferView": 16,
            "componentType": 5126,
            "count": 206,
            "type": "VEC2"
        },
        {
            "bufferView": 17,
            "componentType": 5123,
            "count": 456,
            "type": "SCALAR"
        },
        {
            "bufferView": 18,
            "componentType": 5126,
            "count": 56,
            "max": [
                0.2640668749809265,
                0.8283010721206665,
                0.5799766778945923
            ],
            "min": [-1.9005217552185059, -0.8075804710388184, -0.5799769163131714],
            "type": "VEC3"
        },
        {
            "bufferView": 19,
            "componentType": 5126,
            "count": 56,
            "type": "VEC3"
        },
        {
            "bufferView": 20,
            "componentType": 5126,
            "count": 56,
            "type": "VEC4"
        },
        {
            "bufferView": 21,
            "componentType": 5126,
            "count": 56,
            "type": "VEC2"
        },
        {
            "bufferView": 22,
            "componentType": 5123,
            "count": 84,
            "type": "SCALAR"
        },
        {
            "bufferView": 23,
            "componentType": 5126,
            "count": 808,
            "max": [
                0.8747486472129822,
                0.5667501091957092,
                0.12390203028917313
            ],
            "min": [-0.9806819558143616, -0.5238857865333557, -0.12754587829113007],
            "type": "VEC3"
        },
        {
            "bufferView": 24,
            "componentType": 5126,
            "count": 808,
            "type": "VEC3"
        },
        {
            "bufferView": 25,
            "componentType": 5126,
            "count": 808,
            "type": "VEC4"
        },
        {
            "bufferView": 26,
            "componentType": 5126,
            "count": 808,
            "type": "VEC2"
        },
        {
            "bufferView": 27,
            "componentType": 5123,
            "count": 3207,
            "type": "SCALAR"
        },
        {
            "bufferView": 28,
            "componentType": 5126,
            "count": 55,
            "max": [
                0.8567027449607849,
                0.5536623001098633,
                0.05740214139223099
            ],
            "min": [
                0.3732156753540039,
                0.443128377199173, -0.05740214139223099
            ],
            "type": "VEC3"
        },
        {
            "bufferView": 29,
            "componentType": 5126,
            "count": 55,
            "type": "VEC3"
        },
        {
            "bufferView": 30,
            "componentType": 5126,
            "count": 55,
            "type": "VEC4"
        },
        {
            "bufferView": 31,
            "componentType": 5126,
            "count": 55,
            "type": "VEC2"
        },
        {
            "bufferView": 32,
            "componentType": 5123,
            "count": 240,
            "type": "SCALAR"
        },
        {
            "bufferView": 33,
            "componentType": 5126,
            "count": 6,
            "max": [
                0.20833333333333334
            ],
            "min": [
                0
            ],
            "type": "SCALAR"
        },
        {
            "bufferView": 34,
            "componentType": 5126,
            "count": 6,
            "type": "VEC3"
        },
        {
            "bufferView": 35,
            "componentType": 5126,
            "count": 6,
            "type": "VEC3"
        },
        {
            "bufferView": 36,
            "componentType": 5126,
            "count": 6,
            "type": "VEC3"
        },
        {
            "bufferView": 37,
            "componentType": 5126,
            "count": 2,
            "max": [
                0.125
            ],
            "min": [
                0.08333333333333333
            ],
            "type": "SCALAR"
        },
        {
            "bufferView": 38,
            "componentType": 5126,
            "count": 2,
            "type": "VEC4"
        },
        {
            "bufferView": 39,
            "componentType": 5126,
            "count": 6,
            "type": "VEC4"
        }
    ],
    "bufferViews": [{
            "buffer": 0,
            "byteLength": 48,
            "byteOffset": 0
        },
        {
            "buffer": 0,
            "byteLength": 48,
            "byteOffset": 48
        },
        {
            "buffer": 0,
            "byteLength": 12,
            "byteOffset": 96
        },
        {
            "buffer": 0,
            "byteLength": 528,
            "byteOffset": 108
        },
        {
            "buffer": 0,
            "byteLength": 528,
            "byteOffset": 636
        },
        {
            "buffer": 0,
            "byteLength": 704,
            "byteOffset": 1164
        },
        {
            "buffer": 0,
            "byteLength": 352,
            "byteOffset": 1868
        },
        {
            "buffer": 0,
            "byteLength": 216,
            "byteOffset": 2220
        },
        {
            "buffer": 0,
            "byteLength": 7632,
            "byteOffset": 2436
        },
        {
            "buffer": 0,
            "byteLength": 7632,
            "byteOffset": 10068
        },
        {
            "buffer": 0,
            "byteLength": 10176,
            "byteOffset": 17700
        },
        {
            "buffer": 0,
            "byteLength": 5088,
            "byteOffset": 27876
        },
        {
            "buffer": 0,
            "byteLength": 2742,
            "byteOffset": 32964
        },
        {
            "buffer": 0,
            "byteLength": 2472,
            "byteOffset": 35708
        },
        {
            "buffer": 0,
            "byteLength": 2472,
            "byteOffset": 38180
        },
        {
            "buffer": 0,
            "byteLength": 3296,
            "byteOffset": 40652
        },
        {
            "buffer": 0,
            "byteLength": 1648,
            "byteOffset": 43948
        },
        {
            "buffer": 0,
            "byteLength": 912,
            "byteOffset": 45596
        },
        {
            "buffer": 0,
            "byteLength": 672,
            "byteOffset": 46508
        },
        {
            "buffer": 0,
            "byteLength": 672,
            "byteOffset": 47180
        },
        {
            "buffer": 0,
            "byteLength": 896,
            "byteOffset": 47852
        },
        {
            "buffer": 0,
            "byteLength": 448,
            "byteOffset": 48748
        },
        {
            "buffer": 0,
            "byteLength": 168,
            "byteOffset": 49196
        },
        {
            "buffer": 0,
            "byteLength": 9696,
            "byteOffset": 49364
        },
        {
            "buffer": 0,
            "byteLength": 9696,
            "byteOffset": 59060
        },
        {
            "buffer": 0,
            "byteLength": 12928,
            "byteOffset": 68756
        },
        {
            "buffer": 0,
            "byteLength": 6464,
            "byteOffset": 81684
        },
        {
            "buffer": 0,
            "byteLength": 6414,
            "byteOffset": 88148
        },
        {
            "buffer": 0,
            "byteLength": 660,
            "byteOffset": 94564
        },
        {
            "buffer": 0,
            "byteLength": 660,
            "byteOffset": 95224
        },
        {
            "buffer": 0,
            "byteLength": 880,
            "byteOffset": 95884
        },
        {
            "buffer": 0,
            "byteLength": 440,
            "byteOffset": 96764
        },
        {
            "buffer": 0,
            "byteLength": 480,
            "byteOffset": 97204
        },
        {
            "buffer": 0,
            "byteLength": 24,
            "byteOffset": 97684
        },
        {
            "buffer": 0,
            "byteLength": 72,
            "byteOffset": 97708
        },
        {
            "buffer": 0,
            "byteLength": 72,
            "byteOffset": 97780
        },
        {
            "buffer": 0,
            "byteLength": 72,
            "byteOffset": 97852
        },
        {
            "buffer": 0,
            "byteLength": 8,
            "byteOffset": 97924
        },
        {
            "buffer": 0,
            "byteLength": 32,
            "byteOffset": 97932
        },
        {
            "buffer": 0,
            "byteLength": 96,
            "byteOffset": 97964
        }
    ],
    "buffers": [{
        "byteLength": 98060,
        "uri": "Handgun_Tangent.bin"
    }]
}